<svg id="LOGO" xmlns="http://www.w3.org/2000/svg" viewBox="0 0 460.09 56.26"><defs><style>.cls-1{fill:#009540;}.cls-2{fill:#575756;}.cls-3{fill:#d3d367;}.cls-4{fill:#1d1d1b;}</style></defs><rect class="cls-1" y="0.01" width="56.45" height="56.25" rx="7"/><rect class="cls-1" x="115.33" width="56.45" height="56.25" rx="7"/><rect class="cls-1" x="288.31" width="56.45" height="56.25" rx="7"/><rect class="cls-1" x="403.64" width="56.45" height="56.25" rx="7"/><rect class="cls-2" x="172.99" y="0.01" width="56.45" height="56.25" rx="7"/><rect class="cls-2" x="230.65" width="56.45" height="56.25" rx="7"/><rect class="cls-3" x="57.66" y="0.01" width="56.45" height="56.25" rx="7"/><rect class="cls-3" x="345.98" width="56.45" height="56.25" rx="7"/><path class="cls-4" d="M135.61,440.54V401.33h16.52c8,0,16.08,2.86,16.08,13.22,0,6.5-3.19,10-7.51,11.76l10.81,14.23h-11.7l-9.36-12.77H146v12.77ZM146,419.37h6.61c3,0,5-1.52,5-4.54s-2-4.54-5-4.54H146Z" transform="translate(-67.59 -392.81)"/><path class="cls-4" d="M216.33,401.32v39.21H206V401.32Z" transform="translate(-67.59 -392.81)"/><path class="cls-4" d="M282.76,401.33v9H264.89v6h16.18v8.91H264.89v6.39h18.2v9H254.52V401.33Z" transform="translate(-67.59 -392.81)"/><path class="cls-4" d="M309,440.55V401.33h9.8l15.35,22.52c-.17-1.85-.23-4.31-.23-6.5v-16h10.37v39.22h-9.81l-15.34-22.47c.17,1.85.22,4.32.22,6.44v16Z" transform="translate(-67.59 -392.81)"/><path class="cls-4" d="M381.69,401.33c14,0,20.51,8.18,20.51,19.61s-6.5,19.61-20.51,19.61H366.07V401.33Zm0,9h-5.26v21.28h5.26c6.22,0,9.86-3.3,9.86-10.64S387.91,410.3,381.69,410.3Z" transform="translate(-67.59 -392.81)"/><path class="cls-4" d="M438,401.31v30h17.92v9.25H427.63V401.31Z" transform="translate(-67.59 -392.81)"/><path class="cls-4" d="M513.8,401.31v9H495.93v6h16.19v8.9H495.93v6.39h18.2v9H485.56V401.31Z" transform="translate(-67.59 -392.81)"/><path class="cls-4" d="M110,401.33v9.25H92.06v6.78h16.31v9.25H92.06v14H81.69V401.33Z" transform="translate(-67.59 -392.81)"/></svg>